<?xml version="1.0" encoding="UTF-8"?>
<svg id="Capa_1" xmlns="http://www.w3.org/2000/svg" version="1.1" viewBox="0 0 800 800">
  <!-- Generator: Adobe Illustrator 30.3.0, SVG Export Plug-In . SVG Version: 2.1.3 Build 182)  -->
  <defs>
    <style>
      .st0 {
        fill: #1d1d1b;
      }
    </style>
  </defs>
  <g>
    <path class="st0" d="M481.69,269.65c0-8.18-6.7-14.81-14.96-14.81-3.54,0-6.79,1.22-9.35,3.26h0l-.16.12h0l-244.65,194.27.03.02-39.75,31.83c-4.02,3.35-9.35,5.36-14.93,4.2-8.99-1.88-14.74-10.6-12.84-19.48.99-4.63,3.99-7.92,7.67-10.64l6.86-5.46.11-.09v-.02l130.92-105.48,5.59-4.7h-.02c9.67-8.37,15.8-20.63,15.8-34.32,0-25.2-20.69-45.63-46.21-45.63-11.04,0-21.17,3.84-29.12,10.22l-5.12,3.88-128.95,103.88c-.7.47-1.34,1-1.95,1.57l-.03.02h0c-2.84,2.7-4.62,6.49-4.62,10.69,0,8.18,6.7,14.81,14.96,14.81,3.18,0,6.11-.99,8.54-2.66l.05.07,100.79-81.19v-.05l28.59-23.03c3.45-2.98,7.34-5.2,12.13-5.2,9.19,0,16.64,7.36,16.64,16.43,0,5.63-3.1,10.37-7.25,13.56l-39.76,31.81v-.03l-89.92,72.43.04.05-8.37,6.65-4.9,4.14c-7.97,6.36-13.87,15.35-16.15,26.02-5.28,24.65,10.68,48.87,35.65,54.08,13.57,2.83,26.98-.55,37.27-8.16v.02l5.81-4.43,285.62-226.86c3.61-2.7,5.95-6.98,5.95-11.81v.02Z"/>
    <polygon class="st0" points="403.73 402.23 403.73 392.57 360.89 392.57 360.89 408.63 382.02 408.63 360.14 483.62 360.14 493.28 404.71 493.28 404.71 477.22 381.85 477.22 403.73 402.23"/>
    <polygon class="st0" points="407.49 408.63 422.83 408.63 422.83 493.28 442.11 493.28 442.11 408.63 457.44 408.63 457.44 392.57 407.49 392.57 407.49 408.63"/>
    <polygon class="st0" points="463.12 493.28 508.5 493.28 508.5 477.22 482.4 477.22 482.4 450.98 504.85 450.98 504.85 434.87 482.4 434.87 482.4 408.63 508.5 408.63 508.5 392.57 463.12 392.57 463.12 493.28"/>
    <polygon class="st0" points="550.06 392.57 535.19 430.07 535.19 392.57 515.91 392.57 515.91 493.28 535.19 493.28 535.19 455.79 550.06 493.28 570.67 493.28 548.56 442.93 570.67 392.57 550.06 392.57"/>
    <path class="st0" d="M588.41,402.22v-.1c1.02-.3,1.73-1.01,1.73-1.97,0-.76-.36-1.41-.82-1.77-.62-.4-1.33-.66-2.91-.66-1.38,0-2.45.15-3.22.3v8.22h1.94v-3.28h.92c1.07,0,1.58.4,1.73,1.31.26.96.41,1.66.67,1.97h2.1c-.21-.25-.36-.76-.62-2.02-.25-1.11-.72-1.77-1.53-2.02v.02ZM586.11,401.62h-.92v-2.37c.2-.05.56-.1,1.07-.1,1.23,0,1.79.5,1.79,1.26,0,.86-.87,1.21-1.94,1.21Z"/>
    <path class="st0" d="M586.52,393.7h-.05c-4.8,0-8.63,3.68-8.63,8.27s3.83,8.32,8.63,8.32,8.58-3.63,8.58-8.32-3.73-8.27-8.53-8.27ZM586.52,408.58c-3.78,0-6.54-2.92-6.54-6.61s2.76-6.61,6.44-6.61h.05c3.73,0,6.43,2.98,6.43,6.61s-2.7,6.66-6.38,6.61Z"/>
  </g>
  <g>
    <path class="st0" d="M359.29,520.8h9.43c4.21,0,6.96,2.14,6.96,6.16,0,2.65-1.27,4.57-3.84,5.26v.18c3.3.44,4.79,2.76,4.79,5.62,0,4.9-2.97,7-7.18,7h-10.15v-24.22h-.01ZM368.83,531.06c2.61,0,3.3-1.23,3.3-3.34v-.73c0-2.1-.72-2.86-3.3-2.86h-5.98v6.93h5.98ZM369.73,541.68c2.54,0,3.34-1.09,3.34-3.44v-.83c0-2.03-.83-3.37-4.24-3.37h-5.98v7.65h6.89-.01Z"/>
    <path class="st0" d="M387.96,520.8h3.7l3.34,6.13c.65,1.16,2.07,4.28,2.72,5.73h.18c.65-1.45,2.07-4.57,2.72-5.73l3.3-6.13h3.7l.18.25-8.2,14.65v9.32h-3.59v-9.32l-8.23-14.65.18-.25h0Z"/>
    <path class="st0" d="M420.07,540.05c1.96,0,2.32.44,2.32,2.54s-.36,2.57-2.32,2.57-2.32-.43-2.32-2.57.33-2.54,2.32-2.54Z"/>
  </g>
  <g>
    <path class="st0" d="M452.43,536.51c-.22,1-.22,1.66,0,1.98.22.31.96.47,2.22.47h8.78c1.8,0,2.9-.63,3.29-1.88.25-.8.06-1.35-.56-1.64-.61-.3-2.26-.45-4.96-.45h-4.21c-3.27,0-5.62-.19-7.05-.56-1.42-.37-2.23-1.06-2.43-2.08-.17-.83.05-2.27.68-4.32.86-2.8,2.11-4.65,3.75-5.57,1.65-.91,4.08-1.37,7.31-1.37h9.63c3.38,0,5.52.47,6.42,1.41.9.94.99,2.61.25,4.99l-.25.81h-6.84c.27-.88.25-1.47-.07-1.76-.32-.3-1.19-.45-2.63-.45h-7.33c-1.86,0-2.98.59-3.35,1.77-.36,1.18.1,1.8,1.38,1.85,1.3.04,2.53.06,3.68.06h4.65c3.18,0,5.48.21,6.89.63,1.42.42,2.26,1.16,2.5,2.23.21.91.02,2.34-.58,4.29-.61,1.98-1.31,3.42-2.11,4.35-.87,1-2.11,1.7-3.71,2.09s-3.92.59-6.98.59h-8.95c-3.31,0-5.43-.44-6.36-1.32s-1.06-2.41-.39-4.59l.48-1.55h6.84v.02Z"/>
    <path class="st0" d="M481.08,521.11h18.65c2.78,0,4.65.61,5.61,1.82.96,1.2,1.04,3.12.22,5.76l-.64,2.06c-.61,1.98-1.65,3.66-3.11,5.05-1.45,1.39-3.28,2.09-5.49,2.09h-13.58l-1.73,5.6h-6.84l6.9-22.38h.01ZM486.21,526.66l-1.75,5.69h10.5c.9,0,1.6-.22,2.08-.66.5-.45.91-1.18,1.22-2.2.34-1.09.35-1.84.04-2.23-.31-.4-.97-.6-2-.6h-10.09Z"/>
    <path class="st0" d="M505.24,535.94l2.04-6.6c.9-2.93,2.27-5.03,4.11-6.3,1.85-1.28,4.56-1.92,8.13-1.92h11.28c3.49,0,5.77.64,6.85,1.92,1.08,1.28,1.18,3.35.3,6.2l-2.06,6.69c-.95,2.91-2.34,4.98-4.17,6.21-1.82,1.22-4.45,1.84-7.89,1.84h-11.36c-3.4,0-5.68-.6-6.84-1.81s-1.29-3.29-.38-6.23h0ZM513.7,531.38l-.67,2.18c-.59,1.9-.7,3.16-.32,3.77.38.6,1.38.9,3.02.9h8.47c1.58,0,2.73-.32,3.44-.96.72-.65,1.35-1.84,1.89-3.58l.7-2.27c.55-1.78.6-2.99.16-3.62-.43-.64-1.43-.96-3-.96h-7.91c-1.63,0-2.87.33-3.72.98-.83.65-1.51,1.84-2.05,3.56h-.01Z"/>
    <path class="st0" d="M536.64,543.49l6.9-22.38h20.37c2.31,0,3.87.45,4.7,1.35.9,1.02.97,2.75.22,5.17l-.48,1.55c-.59,1.93-1.39,3.3-2.4,4.14-.63.51-1.68.97-3.14,1.37,1.11.32,1.83.69,2.16,1.1.59.77.61,2.07.05,3.88l-1.18,3.82h-6.84l.79-2.56c.38-1.24.45-2.1.21-2.57-.25-.47-1-.71-2.25-.71h-10.45l-1.8,5.84h-6.86ZM548.67,526.66l-1.68,5.45h11.07c1.03,0,1.8-.18,2.31-.53.51-.35.94-1.08,1.28-2.2.32-1.04.35-1.76.07-2.14-.26-.39-1.01-.59-2.26-.59h-10.8,0Z"/>
    <path class="st0" d="M573.17,521.11h26.1l-1.71,5.55h-9.63l-5.19,16.83h-6.84l5.19-16.83h-9.63l1.71-5.55h0Z"/>
    <path class="st0" d="M601.98,521.11h6.84l-5.13,16.65h15.4l-1.77,5.73h-22.25l6.9-22.38h0Z"/>
    <path class="st0" d="M627.43,521.11h6.84l-6.9,22.38h-6.84l6.9-22.38Z"/>
    <path class="st0" d="M639.02,521.11h10.57l7.97,16.35,5.04-16.35h6.84l-6.9,22.38h-10.57l-7.97-16.35-5.04,16.35h-6.84l6.9-22.38Z"/>
    <path class="st0" d="M666.83,543.49l6.9-22.38h24.41l-1.6,5.19h-17.57l-1.09,3.55h16.61l-1.44,4.66h-16.61l-1.11,3.61h17.99l-1.66,5.37h-24.83Z"/>
    <g>
      <path class="st0" d="M703.36,524.84c-.14-.24-.22-.38-.25-.41-.1-.13-.17-.21-.23-.26s-.13-.09-.24-.13c.29-.04.51-.15.67-.32s.24-.38.24-.63c0-.18-.04-.34-.13-.49-.08-.15-.19-.25-.32-.32s-.3-.12-.53-.14h-1.77v3.39h.69v-1.39h.18c.19,0,.35.05.47.14.12.1.28.33.48.7l.28.55h.85l-.4-.68h.01ZM702.51,523.55c-.1.03-.34.05-.74.05h-.28v-.92h.28c.39,0,.64.02.74.05.1.03.18.09.23.16.05.07.08.16.08.25s-.03.18-.08.26c-.06.08-.13.13-.23.16h0Z"/>
      <path class="st0" d="M702.28,526.55c-1.5,0-2.72-1.22-2.72-2.72s1.22-2.72,2.72-2.72,2.72,1.22,2.72,2.72-1.22,2.72-2.72,2.72ZM702.28,521.38c-1.35,0-2.45,1.1-2.45,2.45s1.1,2.45,2.45,2.45,2.45-1.1,2.45-2.45-1.1-2.45-2.45-2.45Z"/>
    </g>
  </g>
  <rect class="st0" x="359.33" y="505.14" width="343.31" height="1.6"/>
</svg>