<?xml version="1.0" encoding="UTF-8" standalone="no"?>
<!-- Created with Inkscape (http://www.inkscape.org/) -->

<svg
   version="1.1"
   id="svg1"
   width="306.27353"
   height="214.97227"
   viewBox="0 0 306.27353 214.97227"
   xmlns="http://www.w3.org/2000/svg"
   xmlns:svg="http://www.w3.org/2000/svg">
  <defs
     id="defs1">
    <clipPath
       clipPathUnits="userSpaceOnUse"
       id="clipPath3">
      <path
         d="M 0,170.079 H 340.157 V 0 H 0 Z"
         transform="translate(-251.06091,-156.5781)"
         id="path3" />
    </clipPath>
  </defs>
  <g
     id="g1"
     transform="translate(-28.641295,-5.8995912)">
    <g
       id="group-MC0"
       clip-path="none">
      <path
         id="path2"
         d="m 0,0 c 0.033,4.911 -3.921,8.918 -8.832,8.951 -2.052,0.014 -4.046,-0.683 -5.643,-1.972 l -0.098,-0.069 -145.606,-117.116 -23.73,-19.179 c -2.393,-2.169 -5.654,-3.112 -8.836,-2.555 -5.347,1.138 -8.764,6.39 -7.635,11.74 0.669,2.634 2.296,4.923 4.564,6.421 l 4.076,3.28 78.017,63.653 3.322,2.792 c 11.614,9.787 13.095,27.136 3.308,38.75 -9.787,11.614 -27.136,13.095 -38.75,3.308 v 0 l -3.043,-2.331 -76.774,-62.62 c -0.414,-0.281 -0.802,-0.599 -1.159,-0.949 -3.493,-3.462 -3.519,-9.101 -0.057,-12.595 2.986,-3.013 7.682,-3.502 11.225,-1.169 l 60.023,48.94 17.016,13.889 c 1.95,1.919 4.552,3.03 7.286,3.113 5.463,0 9.896,-4.42 9.911,-9.883 -0.083,-3.257 -1.684,-6.288 -4.327,-8.194 l -23.73,-19.179 -53.449,-43.65 -4.983,-4.02 -2.918,-2.499 c -11.819,-9.525 -13.678,-26.828 -4.152,-38.647 9.304,-11.544 26.088,-13.628 37.933,-4.709 l 3.448,2.666 L -3.587,-7.035 C -1.357,-5.38 -0.03,-2.777 0,0"
         style="fill:#000000;fill-opacity:1;fill-rule:nonzero;stroke:#48484b;stroke-width:0.25;stroke-linecap:butt;stroke-linejoin:miter;stroke-miterlimit:10;stroke-dasharray:none;stroke-opacity:1"
         transform="matrix(1.3333333,0,0,-1.3333333,334.74787,18.0012)"
         clip-path="url(#clipPath3)" />
    </g>
  </g>
</svg>
