<?xml version="1.0" encoding="UTF-8" standalone="no"?>
<!-- Created with Inkscape (http://www.inkscape.org/) -->

<svg
   version="1.1"
   id="svg1"
   width="396.09497"
   height="214.97145"
   viewBox="0 0 396.09497 214.97145"
   xmlns="http://www.w3.org/2000/svg"
   xmlns:svg="http://www.w3.org/2000/svg">
  <defs
     id="defs1">
    <clipPath
       clipPathUnits="userSpaceOnUse"
       id="clipPath3">
      <path
         d="M 0,170.079 H 340.157 V 0 H 0 Z"
         transform="translate(-251.06091,-156.5781)"
         id="path3" />
    </clipPath>
    <clipPath
       clipPathUnits="userSpaceOnUse"
       id="clipPath5">
      <path
         d="M 0,170.079 H 340.157 V 0 H 0 Z"
         transform="translate(-204.64741,-76.663202)"
         id="path5" />
    </clipPath>
    <clipPath
       clipPathUnits="userSpaceOnUse"
       id="clipPath7">
      <path
         d="M 0,170.079 H 340.157 V 0 H 0 Z"
         transform="translate(-206.8948,-72.810504)"
         id="path7" />
    </clipPath>
    <clipPath
       clipPathUnits="userSpaceOnUse"
       id="clipPath9">
      <path
         d="M 0,170.079 H 340.157 V 0 H 0 Z"
         transform="translate(-240.00541,-21.790598)"
         id="path9" />
    </clipPath>
    <clipPath
       clipPathUnits="userSpaceOnUse"
       id="clipPath11">
      <path
         d="M 0,170.079 H 340.157 V 0 H 0 Z"
         transform="translate(-291.75111,-82.484102)"
         id="path11" />
    </clipPath>
    <clipPath
       clipPathUnits="userSpaceOnUse"
       id="clipPath13">
      <path
         d="M 0,170.079 H 340.157 V 0 H 0 Z"
         transform="translate(-313.17811,-77.040099)"
         id="path13" />
    </clipPath>
    <clipPath
       clipPathUnits="userSpaceOnUse"
       id="clipPath15">
      <path
         d="M 0,170.079 H 340.157 V 0 H 0 Z"
         transform="translate(-313.44331,-72.838502)"
         id="path15" />
    </clipPath>
    <clipPath
       clipPathUnits="userSpaceOnUse"
       id="clipPath17">
      <path
         d="M 0,170.079 H 340.157 V 0 H 0 Z"
         transform="translate(-313.44331,-72.838502)"
         id="path17" />
    </clipPath>
  </defs>
  <g
     id="g1"
     transform="translate(-28.641437,-5.8994173)">
    <g
       id="group-MC0">
      <g
         id="path2"
         clip-path="url(#clipPath3)"
         mask="none"
         style="opacity:1"
         transform="matrix(1.3333333,0,0,-1.3333333,334.74787,18.0012)">
        <path
           style="baseline-shift:baseline;display:inline;overflow:visible;vector-effect:none;fill:#ffffff;stroke-miterlimit:10;enable-background:accumulate;stop-color:#000000;stop-opacity:1"
           d="m 0,0 c 0.033,4.911 -3.921,8.918 -8.832,8.951 -2.052,0.014 -4.046,-0.683 -5.643,-1.972 l -0.098,-0.069 -145.606,-117.116 -23.73,-19.179 c -2.393,-2.169 -5.654,-3.112 -8.836,-2.555 -5.347,1.138 -8.764,6.39 -7.635,11.74 0.669,2.634 2.296,4.923 4.564,6.421 l 4.076,3.28 78.017,63.653 3.322,2.792 c 11.614,9.787 13.095,27.136 3.308,38.75 -9.787,11.614 -27.136,13.095 -38.75,3.308 v 0 l -3.043,-2.331 -76.774,-62.62 c -0.414,-0.281 -0.802,-0.599 -1.159,-0.949 -3.493,-3.462 -3.519,-9.101 -0.057,-12.595 2.986,-3.013 7.682,-3.502 11.225,-1.169 l 60.023,48.94 17.016,13.889 c 1.95,1.919 4.552,3.03 7.286,3.113 5.463,0 9.896,-4.42 9.911,-9.883 -0.083,-3.257 -1.684,-6.288 -4.327,-8.194 l -23.73,-19.179 -53.449,-43.65 -4.983,-4.02 -2.918,-2.499 c -11.819,-9.525 -13.678,-26.828 -4.152,-38.647 9.304,-11.544 26.088,-13.628 37.933,-4.709 l 3.448,2.666 L -3.587,-7.035 C -1.357,-5.38 -0.03,-2.777 0,0"
           id="path23" />
        <path
           style="baseline-shift:baseline;display:inline;overflow:visible;vector-effect:none;fill:#48484b;stroke-miterlimit:10;enable-background:accumulate;stop-color:#000000;stop-opacity:1"
           d="m -191.78711,-152.0957 c -8.66622,-0.55468 -17.44423,2.97939 -23.28516,10.22656 -9.56839,11.8716 -7.69972,29.25683 4.17188,38.82422 l -0.002,-0.004 2.91797,2.5 4.98437,4.021486 53.44922,43.650391 23.73242,19.181641 0.004,0.002 c 2.61143,1.883233 4.19338,4.877652 4.27539,8.095703 -0.017,5.392392 -4.39079,9.751754 -9.78321,9.753906 -2.70258,-0.08205 -5.2736,-1.179247 -7.20117,-3.076172 l -0.006,-0.0039 -17.01953,-13.892578 -60.02734,-48.945313 -0.006,-0.002 c -3.59207,-2.365313 -8.35545,-1.869192 -11.38281,1.185547 -3.50955,3.541989 -3.48239,9.261929 0.0586,12.771484 0.3623,0.355199 0.75555,0.677662 1.17578,0.962891 l 76.76758,62.6152344 3.04297,2.3320312 c 11.66564,9.8265948 29.09253,8.3380724 38.92187,-3.3261718 9.830535,-11.6656588 8.343397,-29.0972018 -3.32226,-38.9277348 l -3.32227,-2.791015 -78.01953,-63.65429 -4.08008,-3.28516 -0.006,-0.002 c -2.24084,-1.48006 -3.84773,-3.74168 -4.50976,-6.34375 -1.11476,-5.28249 2.25669,-10.46393 7.53515,-11.58985 3.14411,-0.55036 6.36598,0.38028 8.73047,2.52344 l 0.002,0.004 23.73242,19.17968 145.609372,117.1191416 0.101563,0.072266 -0.0059,-0.00586 c 1.619434,1.3071074 3.639847,2.0141968 5.7207027,2 C -3.8534931,9.042718 0.15845389,4.9785466 0.125,0 H 0 L 0.125,-0.00195313 C 0.094579,-2.8179236 -1.250407,-5.4565276 -3.5117188,-7.1347656 L -173.51562,-143.93164 l -3.44922,-2.66602 v -0.002 c -4.46168,-3.35953 -9.62253,-5.16329 -14.82227,-5.49609 z m -0.0156,0.24804 c 5.15238,0.33 10.26542,2.11951 14.6875,5.44922 l 3.44531,2.66407 170.0058575,136.7988231 h 0.00195 C -1.4639425,-5.3041719 -0.15517831,-2.7372986 -0.125,0 c 7.16e-6,6.4933147e-4 -7.01e-6,0.00130377 0,0.00195313 C -0.0935398,4.8444937 -3.9892361,8.7936302 -8.8320313,8.8261719 -10.855175,8.839975 -12.821918,8.151752 -14.396484,6.8808594 l -0.0039,-0.00195 -0.09766,-0.068359 -145.601566,-117.1132804 -23.72461,-19.17579 -0.006,-0.004 c -2.42102,-2.19144 -5.718,-3.1433 -8.93554,-2.58008 h -0.004 -0.002 c -5.41299,1.15204 -8.87341,6.47264 -7.73047,11.88867 v 0.002 0.002 c 0.67665,2.66412 2.32326,4.98097 4.61718,6.49609 l 4.06641,3.27149 78.01563,63.652343 3.32031,2.791016 c 11.562342,9.743467 13.036438,27.011877 3.29297,38.5742189 -9.74347,11.5623409 -27.00993,13.0364365 -38.57227,3.2929687 l -0.004,-0.00195 -3.04297,-2.3320312 -76.77735,-62.6210934 -0.004,-0.0039 c -0.40735,-0.276487 -0.78923,-0.589211 -1.14063,-0.933594 -3.44502,-3.414445 -3.47109,-8.971958 -0.0566,-12.417969 2.94464,-2.971261 7.57248,-3.45303 11.06641,-1.152343 l 60.01367,48.93164 17.00781,13.88086 c 1.97243,1.941074 4.60373,3.064483 7.36914,3.148437 h 0.002 0.002 c 5.53042,0 10.02192,-4.477377 10.03711,-10.007812 l -0.002,-0.002 c -0.0839,-3.294084 -1.70118,-6.3601 -4.37304,-8.289062 l -0.004,-0.0039 -23.72461,-19.173828 -53.44922,-43.650391 -4.98242,-4.01953 -2.91797,-2.49805 -0.002,-0.002 c -11.7664,-9.48261 -13.61642,-26.7043 -4.13281,-38.47071 5.78907,-7.18283 14.4869,-10.68671 23.07422,-10.13672 z"
           id="path24" />
      </g>
      <g
         id="path4"
         clip-path="url(#clipPath5)"
         mask="none"
         style="opacity:1"
         transform="matrix(1.3333333,0,0,-1.3333333,272.8632,124.5544)">
        <path
           style="baseline-shift:baseline;display:inline;overflow:visible;vector-effect:none;fill:#ffffff;stroke-miterlimit:10;enable-background:accumulate;stop-color:#000000;stop-opacity:1"
           d="m 0,0 v 5.821 h -25.489 v -9.674 h 12.577 l -13.024,-45.199 v -5.821 H 0.586 v 9.674 h -13.61 z"
           id="path25" />
        <path
           style="baseline-shift:baseline;display:inline;overflow:visible;vector-effect:none;fill:#48484b;stroke-miterlimit:10;enable-background:accumulate;stop-color:#000000;stop-opacity:1"
           d="m -26.060547,-54.998047 v 5.962891 l 12.982422,45.0566404 H -25.613281 V 5.9453125 H 0.125 V -0.01757813 L -12.857422,-45.074219 H 0.7109375 v -9.923828 z m 0.25,0.25 H 0.4609375 v 9.423828 H -13.189453 L -0.125,0.015625 v 5.6796875 h -25.238281 v -9.4238281 h 12.617187 L -25.810547,-49.070312 Z"
           id="path26" />
      </g>
      <g
         id="path6"
         clip-path="url(#clipPath7)"
         mask="none"
         style="opacity:1"
         transform="matrix(1.3333333,0,0,-1.3333333,275.85973,129.69133)">
        <path
           style="baseline-shift:baseline;display:inline;overflow:visible;vector-effect:none;fill:#ffffff;stroke-miterlimit:10;enable-background:accumulate;stop-color:#000000;stop-opacity:1"
           d="M 0,0 H 9.129 V -51.02 H 20.603 V 0 h 9.13 V 9.674 H 0 Z"
           id="path27" />
        <path
           style="baseline-shift:baseline;display:inline;overflow:visible;vector-effect:none;fill:#48484b;stroke-miterlimit:10;enable-background:accumulate;stop-color:#000000;stop-opacity:1"
           d="M 9.0039063,-51.144531 V -0.125 H -0.125 V 9.7988281 H 29.857422 V -0.125 h -9.128906 v -51.019531 z m 0.25,0.25 H 20.478516 V 0.125 h 9.128906 V 9.5488281 H 0.125 V 0.125 h 9.1289063 z"
           id="path28" />
      </g>
      <g
         id="path8"
         clip-path="url(#clipPath9)"
         mask="none"
         style="opacity:1"
         transform="matrix(1.3333333,0,0,-1.3333333,320.0072,197.71787)">
        <path
           style="baseline-shift:baseline;display:inline;overflow:visible;vector-effect:none;fill:#ffffff;stroke-miterlimit:10;enable-background:accumulate;stop-color:#000000;stop-opacity:1"
           d="M 0,0 H 26.997 V 9.674 H 11.474 v 15.815 h 13.359 v 9.715 H 11.474 V 51.02 h 15.523 v 9.673 H 0 Z"
           id="path29" />
        <path
           style="baseline-shift:baseline;display:inline;overflow:visible;vector-effect:none;fill:#48484b;stroke-miterlimit:10;enable-background:accumulate;stop-color:#000000;stop-opacity:1"
           d="M -0.125,-0.125 V 60.818359 H 27.121094 V 50.894531 H 11.599609 V 35.328125 H 24.957031 V 25.363281 H 11.599609 V 9.7988281 H 27.121094 V -0.125 Z m 0.25,0.25 H 26.871094 V 9.5488281 H 11.349609 V 25.613281 h 13.357422 v 9.464844 H 11.349609 v 16.066406 h 15.521485 v 9.423828 H 0.125 Z"
           id="path30" />
      </g>
      <g
         id="path10"
         clip-path="url(#clipPath11)"
         mask="none"
         style="opacity:1"
         transform="matrix(1.3333333,0,0,-1.3333333,389.00147,116.7932)">
        <path
           style="baseline-shift:baseline;display:inline;overflow:visible;vector-effect:none;fill:#ffffff;stroke-miterlimit:10;enable-background:accumulate;stop-color:#000000;stop-opacity:1"
           d="M 0,0 -8.85,-22.6 V 0 H -20.324 V -60.693 H -8.85 v 22.599 L 0,-60.693 H 12.256 L -0.893,-30.347 12.256,0 Z"
           id="path31" />
        <path
           style="baseline-shift:baseline;display:inline;overflow:visible;vector-effect:none;fill:#48484b;stroke-miterlimit:10;enable-background:accumulate;stop-color:#000000;stop-opacity:1"
           d="M -20.449219,-60.818359 V 0.125 H -8.7246094 V -21.935547 L -0.0859375,0.125 H 12.447266 L -0.75585937,-30.347656 12.447266,-60.818359 H -0.0859375 l -8.6386719,22.060547 v -22.060547 z m 0.25,0.25 h 11.2246096 v 23.136718 L 0.0859375,-60.568359 H 12.064453 L -1.0292969,-30.347656 12.064453,-0.125 H 0.0859375 L -8.9746094,-23.261719 V -0.125 H -20.199219 Z"
           id="path32" />
      </g>
      <g
         id="path12"
         clip-path="url(#clipPath13)"
         mask="none"
         style="opacity:1"
         transform="matrix(1.3333333,0,0,-1.3333333,417.5708,124.05187)">
        <path
           style="baseline-shift:baseline;display:inline;overflow:visible;vector-effect:none;fill:#ffffff;stroke-miterlimit:10;enable-background:accumulate;stop-color:#000000;stop-opacity:1"
           d="m 0,0 h -0.544 v 1.396 c 0.205,0.048 0.416,0.071 0.628,0.07 0.74,0 1.075,-0.307 1.075,-0.768 C 1.159,0.237 0.67,0 0.028,0 Z m 1.396,-0.363 v 0 c 0.572,0.118 0.995,0.604 1.033,1.187 0,0.408 -0.179,0.795 -0.489,1.06 -0.517,0.32 -1.125,0.463 -1.731,0.405 -0.641,0 -1.282,-0.06 -1.912,-0.181 v -4.956 h 1.159 v 2.024 H 0 c 0.628,0 0.935,-0.237 1.033,-0.781 0.059,-0.416 0.192,-0.817 0.391,-1.187 H 2.666 C 2.462,-2.416 2.339,-2.003 2.303,-1.577 2.15,-0.921 1.884,-0.503 1.396,-0.363"
           id="path33" />
        <path
           style="baseline-shift:baseline;display:inline;overflow:visible;vector-effect:none;fill:#48484b;stroke-miterlimit:10;enable-background:accumulate;stop-color:#000000;stop-opacity:1"
           d="m -1.828125,-2.9726563 v 5.1835938 l 0.1015625,0.019531 c 0.6353549,0.1220284 1.2815291,0.1831098 1.92773438,0.1835937 0.63200188,0.05963 1.26567232,-0.090202 1.80468752,-0.4238281 l 0.00781,-0.00586 0.00781,-0.00586 C 2.3591087,1.6899013 2.5546875,1.2687792 2.5546875,0.82421875 v -0.003906 -0.003906 C 2.5181487,0.25582476 2.1251078,-0.17681424 1.6132812,-0.37304688 1.7844611,-0.46094622 1.9612502,-0.54323397 2.0761719,-0.703125 2.2366675,-0.9264233 2.3450225,-1.2109425 2.4238281,-1.5488281 l 0.00391,-0.00781 v -0.00977 C 2.4622935,-1.9753555 2.579644,-2.3716339 2.7753906,-2.7324219 L 2.8769531,-2.9179688 H 1.3496094 l -0.035156,0.066406 C 1.1092027,-2.4699411 0.97151854,-2.0564285 0.91015625,-1.6269531 0.86463255,-1.3742501 0.77644894,-1.2140444 0.63867187,-1.109375 0.50089481,-1.0047056 0.29827548,-0.94921875 0,-0.94921875 H -0.41992188 V -2.9726563 Z m 0.25,0.25 h 0.90820313 v 2.02343755 H 0 c 0.32972452,0 0.59379269,-0.0611069 0.79101562,-0.2109375 C 0.98823856,-1.0599868 1.1037737,-1.2907342 1.15625,-1.5820312 v -0.00391 -0.00195 c 0.053693,-0.3785791 0.1809646,-0.7398392 0.3554687,-1.0800782 h 0.9902344 c -0.1604017,0.3435326 -0.2922145,0.7013616 -0.3242187,1.0800782 l 0.00391,-0.017578 c -0.074194,0.3181144 -0.1758394,0.5711576 -0.3085937,0.75585932 -0.1327544,0.1847017 -0.2936293,0.30462085 -0.5117188,0.3671875 l 0.035156,0.12109375 -0.025391,0.12109375 C 1.8875201,-0.13369887 2.2670808,0.30402569 2.3027344,0.83007813 2.3008838,1.1954783 2.1389045,1.5395448 1.8632812,1.7792969 1.3716495,2.0805076 0.79537388,2.219064 0.22070313,2.1640625 h -0.005859 -0.005859 c -0.5991464,0 -1.19737885,-0.062991 -1.78710933,-0.1699219 z M -0.66992187,-0.125 v 1.6191406 l 0.0976563,0.023437 c 0.21490783,0.05032 0.4348182,0.075263 0.65624999,0.074219 0.38728604,0 0.68390362,-0.080674 0.89062501,-0.2382813 C 1.1813308,1.1959089 1.2832031,0.95804401 1.2832031,0.69726562 1.2832031,0.42256823 1.1267741,0.20127351 0.89648438,0.06835937 0.66619465,-0.06455476 0.36372537,-0.125 0.02734375,-0.125 H 0 Z m 0.24999999,0.25 H 0 0.02734375 c 0.30561838,0 0.56943035,0.0593204 0.74414062,0.16015625 0.17471028,0.10083587 0.26171873,0.22580677 0.26171873,0.41210937 0,0.20022162 -0.0651589,0.34784108 -0.21093747,0.45898438 -0.14577862,0.1111433 -0.38556729,0.1855469 -0.73828126,0.1855469 -0.17020575,8.028e-4 -0.33843216,-0.024604 -0.50390625,-0.056641 z"
           id="path34" />
      </g>
      <path
         id="path14"
         d="M 0,0 C -2.201,0.13 -3.88,2.02 -3.749,4.221 -3.63,6.24 -2.019,7.851 0,7.971 2.128,7.957 3.841,6.22 3.827,4.093 3.827,4.054 3.826,4.016 3.825,3.978 3.925,1.884 2.308,0.105 0.214,0.004 0.143,0.001 0.071,-0.001 0,0 m 0,8.962 v 0 C -2.759,8.9 -4.946,6.613 -4.884,3.854 -4.823,1.095 -2.536,-1.092 0.223,-1.03 2.944,-0.97 5.116,1.257 5.109,3.978 5.087,6.754 2.819,8.985 0.043,8.963 0.02,8.963 -0.004,8.962 -0.028,8.962 Z"
         style="fill:#ffffff;fill-opacity:1;fill-rule:nonzero;stroke:none"
         transform="matrix(1.3333333,0,0,-1.3333333,417.9244,129.654)"
         clip-path="url(#clipPath15)"
         mask="none" />
      <path
         id="path16"
         d="M 0,0 C -2.201,0.13 -3.88,2.02 -3.749,4.221 -3.63,6.24 -2.019,7.851 0,7.971 2.128,7.957 3.841,6.22 3.827,4.093 3.827,4.054 3.826,4.016 3.825,3.978 3.925,1.884 2.308,0.105 0.214,0.004 0.143,0.001 0.071,-0.001 0,0 Z m 0,8.962 v 0 C -2.759,8.9 -4.946,6.613 -4.884,3.854 -4.823,1.095 -2.536,-1.092 0.223,-1.03 2.944,-0.97 5.116,1.257 5.109,3.978 5.087,6.754 2.819,8.985 0.043,8.963 0.02,8.963 -0.004,8.962 -0.028,8.962 Z"
         style="fill:none;stroke:#48484b;stroke-width:0.25;stroke-linecap:butt;stroke-linejoin:miter;stroke-miterlimit:10;stroke-dasharray:none;stroke-opacity:1"
         transform="matrix(1.3333333,0,0,-1.3333333,417.9244,129.654)"
         clip-path="url(#clipPath17)"
         mask="none" />
    </g>
  </g>
</svg>
