<?xml version="1.0" encoding="UTF-8" standalone="no"?>
<!-- Created with Inkscape (http://www.inkscape.org/) -->

<svg
   version="1.1"
   id="svg1"
   width="453.54266"
   height="226.772"
   viewBox="0 0 453.54266 226.772"
   xmlns="http://www.w3.org/2000/svg"
   xmlns:svg="http://www.w3.org/2000/svg">
  <defs
     id="defs1">
    <clipPath
       clipPathUnits="userSpaceOnUse"
       id="clipPath3">
      <path
         d="M 0,170.079 H 340.157 V 0 H 0 Z"
         transform="translate(-251.06091,-156.5781)"
         id="path3" />
    </clipPath>
    <clipPath
       clipPathUnits="userSpaceOnUse"
       id="clipPath5">
      <path
         d="M 0,170.079 H 340.157 V 0 H 0 Z"
         transform="translate(-204.64741,-76.663202)"
         id="path5" />
    </clipPath>
    <clipPath
       clipPathUnits="userSpaceOnUse"
       id="clipPath7">
      <path
         d="M 0,170.079 H 340.157 V 0 H 0 Z"
         transform="translate(-206.8948,-72.810504)"
         id="path7" />
    </clipPath>
    <clipPath
       clipPathUnits="userSpaceOnUse"
       id="clipPath9">
      <path
         d="M 0,170.079 H 340.157 V 0 H 0 Z"
         transform="translate(-240.00541,-21.790598)"
         id="path9" />
    </clipPath>
    <clipPath
       clipPathUnits="userSpaceOnUse"
       id="clipPath11">
      <path
         d="M 0,170.079 H 340.157 V 0 H 0 Z"
         transform="translate(-291.75111,-82.484102)"
         id="path11" />
    </clipPath>
    <clipPath
       clipPathUnits="userSpaceOnUse"
       id="clipPath13">
      <path
         d="M 0,170.079 H 340.157 V 0 H 0 Z"
         transform="translate(-313.17811,-77.040099)"
         id="path13" />
    </clipPath>
    <clipPath
       clipPathUnits="userSpaceOnUse"
       id="clipPath15">
      <path
         d="M 0,170.079 H 340.157 V 0 H 0 Z"
         transform="translate(-313.44331,-72.838502)"
         id="path15" />
    </clipPath>
    <clipPath
       clipPathUnits="userSpaceOnUse"
       id="clipPath17">
      <path
         d="M 0,170.079 H 340.157 V 0 H 0 Z"
         transform="translate(-313.44331,-72.838502)"
         id="path17" />
    </clipPath>
  </defs>
  <g
     id="g1"
     transform="translate(-0.00116225,-4.4451212e-4)">
    <g
       id="group-MC0"
       clip-path="none">
      <path
         id="path2"
         d="m 0,0 c 0.033,4.911 -3.921,8.918 -8.832,8.951 -2.052,0.014 -4.046,-0.683 -5.643,-1.972 l -0.098,-0.069 -145.606,-117.116 -23.73,-19.179 c -2.393,-2.169 -5.654,-3.112 -8.836,-2.555 -5.347,1.138 -8.764,6.39 -7.635,11.74 0.669,2.634 2.296,4.923 4.564,6.421 l 4.076,3.28 78.017,63.653 3.322,2.792 c 11.614,9.787 13.095,27.136 3.308,38.75 -9.787,11.614 -27.136,13.095 -38.75,3.308 v 0 l -3.043,-2.331 -76.774,-62.62 c -0.414,-0.281 -0.802,-0.599 -1.159,-0.949 -3.493,-3.462 -3.519,-9.101 -0.057,-12.595 2.986,-3.013 7.682,-3.502 11.225,-1.169 l 60.023,48.94 17.016,13.889 c 1.95,1.919 4.552,3.03 7.286,3.113 5.463,0 9.896,-4.42 9.911,-9.883 -0.083,-3.257 -1.684,-6.288 -4.327,-8.194 l -23.73,-19.179 -53.449,-43.65 -4.983,-4.02 -2.918,-2.499 c -11.819,-9.525 -13.678,-26.828 -4.152,-38.647 9.304,-11.544 26.088,-13.628 37.933,-4.709 l 3.448,2.666 L -3.587,-7.035 C -1.357,-5.38 -0.03,-2.777 0,0"
         style="fill:#000000;fill-opacity:1;fill-rule:nonzero;stroke:#48484b;stroke-width:0.25;stroke-linecap:butt;stroke-linejoin:miter;stroke-miterlimit:10;stroke-dasharray:none;stroke-opacity:1"
         transform="matrix(1.3333333,0,0,-1.3333333,334.74787,18.0012)"
         clip-path="url(#clipPath3)" />
      <path
         id="path4"
         d="m 0,0 v 5.821 h -25.489 v -9.674 h 12.577 l -13.024,-45.199 v -5.821 H 0.586 v 9.674 h -13.61 z"
         style="fill:#000000;fill-opacity:1;fill-rule:nonzero;stroke:#48484b;stroke-width:0.25;stroke-linecap:butt;stroke-linejoin:miter;stroke-miterlimit:10;stroke-dasharray:none;stroke-opacity:1"
         transform="matrix(1.3333333,0,0,-1.3333333,272.8632,124.5544)"
         clip-path="url(#clipPath5)" />
      <path
         id="path6"
         d="M 0,0 H 9.129 V -51.02 H 20.603 V 0 h 9.13 V 9.674 H 0 Z"
         style="fill:#000000;fill-opacity:1;fill-rule:nonzero;stroke:#48484b;stroke-width:0.25;stroke-linecap:butt;stroke-linejoin:miter;stroke-miterlimit:10;stroke-dasharray:none;stroke-opacity:1"
         transform="matrix(1.3333333,0,0,-1.3333333,275.85973,129.69133)"
         clip-path="url(#clipPath7)" />
      <path
         id="path8"
         d="M 0,0 H 26.997 V 9.674 H 11.474 v 15.815 h 13.359 v 9.715 H 11.474 V 51.02 h 15.523 v 9.673 H 0 Z"
         style="fill:#000000;fill-opacity:1;fill-rule:nonzero;stroke:#48484b;stroke-width:0.25;stroke-linecap:butt;stroke-linejoin:miter;stroke-miterlimit:10;stroke-dasharray:none;stroke-opacity:1"
         transform="matrix(1.3333333,0,0,-1.3333333,320.0072,197.71787)"
         clip-path="url(#clipPath9)" />
      <path
         id="path10"
         d="M 0,0 -8.85,-22.6 V 0 H -20.324 V -60.693 H -8.85 v 22.599 L 0,-60.693 H 12.256 L -0.893,-30.347 12.256,0 Z"
         style="fill:#000000;fill-opacity:1;fill-rule:nonzero;stroke:#48484b;stroke-width:0.25;stroke-linecap:butt;stroke-linejoin:miter;stroke-miterlimit:10;stroke-dasharray:none;stroke-opacity:1"
         transform="matrix(1.3333333,0,0,-1.3333333,389.00147,116.7932)"
         clip-path="url(#clipPath11)" />
      <path
         id="path12"
         d="m 0,0 h -0.544 v 1.396 c 0.205,0.048 0.416,0.071 0.628,0.07 0.74,0 1.075,-0.307 1.075,-0.768 C 1.159,0.237 0.67,0 0.028,0 Z m 1.396,-0.363 v 0 c 0.572,0.118 0.995,0.604 1.033,1.187 0,0.408 -0.179,0.795 -0.489,1.06 -0.517,0.32 -1.125,0.463 -1.731,0.405 -0.641,0 -1.282,-0.06 -1.912,-0.181 v -4.956 h 1.159 v 2.024 H 0 c 0.628,0 0.935,-0.237 1.033,-0.781 0.059,-0.416 0.192,-0.817 0.391,-1.187 H 2.666 C 2.462,-2.416 2.339,-2.003 2.303,-1.577 2.15,-0.921 1.884,-0.503 1.396,-0.363"
         style="fill:#000000;fill-opacity:1;fill-rule:nonzero;stroke:#48484b;stroke-width:0.25;stroke-linecap:butt;stroke-linejoin:miter;stroke-miterlimit:10;stroke-dasharray:none;stroke-opacity:1"
         transform="matrix(1.3333333,0,0,-1.3333333,417.5708,124.05187)"
         clip-path="url(#clipPath13)" />
      <path
         id="path14"
         d="M 0,0 C -2.201,0.13 -3.88,2.02 -3.749,4.221 -3.63,6.24 -2.019,7.851 0,7.971 2.128,7.957 3.841,6.22 3.827,4.093 3.827,4.054 3.826,4.016 3.825,3.978 3.925,1.884 2.308,0.105 0.214,0.004 0.143,0.001 0.071,-0.001 0,0 m 0,8.962 v 0 C -2.759,8.9 -4.946,6.613 -4.884,3.854 -4.823,1.095 -2.536,-1.092 0.223,-1.03 2.944,-0.97 5.116,1.257 5.109,3.978 5.087,6.754 2.819,8.985 0.043,8.963 0.02,8.963 -0.004,8.962 -0.028,8.962 Z"
         style="fill:#ffffff;fill-opacity:1;fill-rule:nonzero;stroke:none"
         transform="matrix(1.3333333,0,0,-1.3333333,417.9244,129.654)"
         clip-path="url(#clipPath15)" />
      <path
         id="path16"
         d="M 0,0 C -2.201,0.13 -3.88,2.02 -3.749,4.221 -3.63,6.24 -2.019,7.851 0,7.971 2.128,7.957 3.841,6.22 3.827,4.093 3.827,4.054 3.826,4.016 3.825,3.978 3.925,1.884 2.308,0.105 0.214,0.004 0.143,0.001 0.071,-0.001 0,0 Z m 0,8.962 v 0 C -2.759,8.9 -4.946,6.613 -4.884,3.854 -4.823,1.095 -2.536,-1.092 0.223,-1.03 2.944,-0.97 5.116,1.257 5.109,3.978 5.087,6.754 2.819,8.985 0.043,8.963 0.02,8.963 -0.004,8.962 -0.028,8.962 Z"
         style="fill:#000000;fill-opacity:1;stroke:#48484b;stroke-width:0.25;stroke-linecap:butt;stroke-linejoin:miter;stroke-miterlimit:10;stroke-dasharray:none;stroke-opacity:1"
         transform="matrix(1.3333333,0,0,-1.3333333,417.9244,129.654)"
         clip-path="url(#clipPath17)" />
    </g>
  </g>
</svg>
